# xmcd
#
# Track frame offsets: 
#        150
#        15221
#        38810
#        56988
#        84417
#        99778
#        118777
#        146544
#        158601
#        176268
#        200258
#        220790
#        242876
#        273165
#        292518
#        319069
#        336638
#
# Disc length: 4747 seconds
#
# Revision: 0
# Processed by: cddbd v1.5.2PL0 Copyright (c) Steve Scherf et al.
# Submitted via: ExactAudioCopyFreeDBPlugin 1.0
#
DISCID=e0128911
DTITLE=Various Artist - Only For Man 3
DYEAR=2000
DGENRE=Blues
TTITLE0=Bluebirds - 3rd House On The Left
TTITLE1=Bob Dylan - Things Have Changed
TTITLE2=Gregg Allman - House Of Blues
TTITLE3=Larry Carlton - Cold Day In Hell
TTITLE4=David Knopfler - Jericho
TTITLE5=Jonny Lang - Lie To Me
TTITLE6=Walter Trout - Got A Broken Heart
TTITLE7=J.J.Cale - A Thing Going On
TTITLE8=Chris Michie - Swee Disposition
TTITLE9=Outlaws - The Weel
TTITLE10=Sean Chambers - Crazy For Loving You
TTITLE11=Jeff Pilson - You Shook Me
TTITLE12=Don Henley - Miss Ghost
TTITLE13=Gary Brooker - Give Me Something To Remember You By
TTITLE14=Lonnie Brooks - Holding On The Memories
TTITLE15=Mason Ruffner - Let Me Down Easy
TTITLE16=Jimmy Nail - Crocodile Shoes
EXTD=
EXTT0=
EXTT1=
EXTT2=
EXTT3=
EXTT4=
EXTT5=
EXTT6=
EXTT7=
EXTT8=
EXTT9=
EXTT10=
EXTT11=
EXTT12=
EXTT13=
EXTT14=
EXTT15=
EXTT16=
PLAYORDER=
